<svg width="87" height="105" viewBox="0 0 87 105" fill="none" xmlns="http://www.w3.org/2000/svg">
<path d="M54.0227 44.1136C53.7955 41.6136 52.7841 39.6705 50.9886 38.2841C49.2159 36.875 46.6818 36.1705 43.3864 36.1705C41.2045 36.1705 39.3864 36.4545 37.9318 37.0227C36.4773 37.5909 35.3864 38.375 34.6591 39.375C33.9318 40.3523 33.5568 41.4773 33.5341 42.75C33.4886 43.7955 33.6932 44.7159 34.1477 45.5114C34.625 46.3068 35.3068 47.0114 36.1932 47.625C37.1023 48.2159 38.1932 48.7386 39.4659 49.1932C40.7386 49.6477 42.1705 50.0455 43.7614 50.3864L49.7614 51.75C53.2159 52.5 56.2614 53.5 58.8977 54.75C61.5568 56 63.7841 57.4886 65.5795 59.2159C67.3977 60.9432 68.7727 62.9318 69.7045 65.1818C70.6364 67.4318 71.1136 69.9545 71.1364 72.75C71.1136 77.1591 70 80.9432 67.7955 84.1023C65.5909 87.2614 62.4205 89.6818 58.2841 91.3636C54.1705 93.0455 49.2045 93.8864 43.3864 93.8864C37.5455 93.8864 32.4545 93.0114 28.1136 91.2614C23.7727 89.5114 20.3977 86.8523 17.9886 83.2841C15.5795 79.7159 14.3409 75.2045 14.2727 69.75H30.4318C30.5682 72 31.1705 73.875 32.2386 75.375C33.3068 76.875 34.7727 78.0114 36.6364 78.7841C38.5227 79.5568 40.7045 79.9432 43.1818 79.9432C45.4545 79.9432 47.3864 79.6364 48.9773 79.0227C50.5909 78.4091 51.8295 77.5568 52.6932 76.4659C53.5568 75.375 54 74.125 54.0227 72.7159C54 71.3977 53.5909 70.2727 52.7955 69.3409C52 68.3864 50.7727 67.5682 49.1136 66.8864C47.4773 66.1818 45.3864 65.5341 42.8409 64.9432L35.5455 63.2386C29.5 61.8523 24.7386 59.6136 21.2614 56.5227C17.7841 53.4091 16.0568 49.2045 16.0795 43.9091C16.0568 39.5909 17.2159 35.8068 19.5568 32.5568C21.8977 29.3068 25.1364 26.7727 29.2727 24.9545C33.4091 23.1364 38.125 22.2273 43.4205 22.2273C48.8295 22.2273 53.5227 23.1477 57.5 24.9886C61.5 26.8068 64.6023 29.3636 66.8068 32.6591C69.0114 35.9545 70.1364 39.7727 70.1818 44.1136H54.0227Z" fill="#6200C5"/>
<mask id="path-2-inside-1_26_7" fill="white">
<path d="M86.2143 78.2703C86.2143 81.7201 85.0993 85.1362 82.9329 88.3235C80.7666 91.5107 77.5913 94.4067 73.5885 96.8462C69.5856 99.2856 64.8335 101.221 59.6035 102.541C54.3735 103.861 48.768 104.541 43.1071 104.541C37.4462 104.541 31.8407 103.861 26.6107 102.541C21.3807 101.221 16.6286 99.2856 12.6257 96.8461C8.62288 94.4067 5.44764 91.5107 3.28131 88.3234C1.11498 85.1362 -9.9425e-06 81.7201 0 78.2702L10.8476 78.2702C10.8476 80.852 11.682 83.4084 13.3032 85.7936C14.9244 88.1788 17.3006 90.3461 20.2962 92.1716C23.2917 93.9972 26.848 95.4453 30.7619 96.4333C34.6758 97.4213 38.8707 97.9298 43.1071 97.9298C47.3435 97.9298 51.5384 97.4213 55.4523 96.4333C59.3662 95.4453 62.9225 93.9972 65.9181 92.1717C68.9137 90.3461 71.2899 88.1789 72.9111 85.7937C74.5323 83.4084 75.3667 80.852 75.3667 78.2703H86.2143Z"/>
</mask>
<path d="M86.2143 78.2703C86.2143 81.7201 85.0993 85.1362 82.9329 88.3235C80.7666 91.5107 77.5913 94.4067 73.5885 96.8462C69.5856 99.2856 64.8335 101.221 59.6035 102.541C54.3735 103.861 48.768 104.541 43.1071 104.541C37.4462 104.541 31.8407 103.861 26.6107 102.541C21.3807 101.221 16.6286 99.2856 12.6257 96.8461C8.62288 94.4067 5.44764 91.5107 3.28131 88.3234C1.11498 85.1362 -9.9425e-06 81.7201 0 78.2702L10.8476 78.2702C10.8476 80.852 11.682 83.4084 13.3032 85.7936C14.9244 88.1788 17.3006 90.3461 20.2962 92.1716C23.2917 93.9972 26.848 95.4453 30.7619 96.4333C34.6758 97.4213 38.8707 97.9298 43.1071 97.9298C47.3435 97.9298 51.5384 97.4213 55.4523 96.4333C59.3662 95.4453 62.9225 93.9972 65.9181 92.1717C68.9137 90.3461 71.2899 88.1789 72.9111 85.7937C74.5323 83.4084 75.3667 80.852 75.3667 78.2703H86.2143Z" fill="white" stroke="#6200C5" stroke-width="14" mask="url(#path-2-inside-1_26_7)"/>
</svg>
